<?xml version="1.0" encoding="UTF-8"?>
<svg xmlns="http://www.w3.org/2000/svg" xmlns:xlink="http://www.w3.org/1999/xlink" viewBox="0 0 500 500">
  <defs>
    <style>
      .cls-1 {
        fill: #9b7268;
      }

      .cls-2 {
        mix-blend-mode: multiply;
        opacity: .16;
      }

      .cls-2, .cls-3, .cls-4, .cls-5, .cls-6 {
        fill: none;
      }

      .cls-7 {
        fill: #fff;
      }

      .cls-8 {
        fill: #fafafa;
      }

      .cls-9 {
        fill: #b04140;
      }

      .cls-10 {
        fill: #00e676;
      }

      .cls-11 {
        fill: #916961;
      }

      .cls-12 {
        fill: #e0e0e0;
      }

      .cls-13 {
        fill: #bdbdbd;
      }

      .cls-14 {
        fill: #039be5;
      }

      .cls-15 {
        fill: #7f5b54;
      }

      .cls-16 {
        fill: #424242;
      }

      .cls-3 {
        isolation: isolate;
      }

      .cls-17 {
        mix-blend-mode: screen;
      }

      .cls-17, .cls-18 {
        fill: #616161;
      }

      .cls-19 {
        fill: #757575;
      }

      .cls-5 {
        clip-path: url(#clippath);
      }

      .cls-6 {
        clip-path: url(#clippath-1);
      }

      .cls-20 {
        fill: #90322d;
      }

      .cls-21 {
        fill: #eee;
      }
    </style>
    <clipPath id="clippath">
      <circle class="cls-4" cx="433.38" cy="208.32" r="49.62" transform="translate(-47.47 208.56) rotate(-25.7)"/>
    </clipPath>
    <clipPath id="clippath-1">
      <circle class="cls-4" cx="62.05" cy="310.87" r="49.62" transform="translate(-68.96 22.21) rotate(-13.12)"/>
    </clipPath>
  </defs>
  <g class="cls-3">
    <g id="Capa_1" data-name="Capa 1">
      <path class="cls-7" d="m391.55,131.29h-2.97v-2.97c0-.96-.78-1.74-1.74-1.74s-1.74.78-1.74,1.74v2.97h-2.97c-.96,0-1.74.78-1.74,1.74s.78,1.74,1.74,1.74h2.97v2.97c0,.96.78,1.74,1.74,1.74s1.74-.78,1.74-1.74v-2.97h2.97c.96,0,1.74-.78,1.74-1.74s-.78-1.74-1.74-1.74Z"/>
      <path class="cls-7" d="m126.22,360.2h-2.97v-2.97c0-.96-.78-1.74-1.74-1.74s-1.74.78-1.74,1.74v2.97h-2.97c-.96,0-1.74.78-1.74,1.74s.78,1.74,1.74,1.74h2.97v2.97c0,.96.78,1.74,1.74,1.74s1.74-.78,1.74-1.74v-2.97h2.97c.96,0,1.74-.78,1.74-1.74s-.78-1.74-1.74-1.74Z"/>
      <g>
        <circle class="cls-7" cx="92.05" cy="159.97" r="3.75"/>
        <path class="cls-7" d="m109.26,168.65c1.47-1.47,1.47-3.84,0-5.31s-3.84-1.47-5.31,0c-1.47,1.47-1.47,3.84,0,5.31,1.47,1.47,3.84,1.47,5.31,0Z"/>
        <circle class="cls-7" cx="112.64" cy="180.55" r="3.75"/>
        <path class="cls-7" d="m103.95,192.45c-1.47,1.47-1.47,3.84,0,5.31,1.47,1.47,3.84,1.47,5.31,0,1.47-1.47,1.47-3.84,0-5.31s-3.84-1.47-5.31,0Z"/>
        <circle class="cls-7" cx="92.05" cy="201.14" r="3.75"/>
        <path class="cls-7" d="m74.84,192.45c-1.47,1.47-1.47,3.84,0,5.31,1.47,1.47,3.84,1.47,5.31,0,1.47-1.47,1.47-3.84,0-5.31s-3.84-1.47-5.31,0Z"/>
        <circle class="cls-7" cx="71.47" cy="180.55" r="3.75"/>
        <circle class="cls-7" cx="77.5" cy="166" r="3.75"/>
      </g>
      <g>
        <path class="cls-7" d="m404.72,302.77c-2.07,0-3.75,1.68-3.75,3.75s1.68,3.75,3.75,3.75,3.75-1.68,3.75-3.75-1.68-3.75-3.75-3.75Z"/>
        <path class="cls-7" d="m421.93,315.21c1.47-1.47,1.47-3.84,0-5.31-1.47-1.47-3.84-1.47-5.31,0-1.47,1.47-1.47,3.84,0,5.31,1.47,1.47,3.84,1.47,5.31,0Z"/>
        <path class="cls-7" d="m425.3,323.35c-2.07,0-3.75,1.68-3.75,3.75s1.68,3.75,3.75,3.75,3.75-1.68,3.75-3.75-1.68-3.75-3.75-3.75Z"/>
        <path class="cls-7" d="m416.62,339c-1.47,1.47-1.47,3.84,0,5.31,1.47,1.47,3.84,1.47,5.31,0,1.47-1.47,1.47-3.84,0-5.31-1.47-1.47-3.84-1.47-5.31,0Z"/>
        <path class="cls-7" d="m404.72,343.93c-2.07,0-3.75,1.68-3.75,3.75s1.68,3.75,3.75,3.75,3.75-1.68,3.75-3.75-1.68-3.75-3.75-3.75Z"/>
        <path class="cls-7" d="m387.51,339c-1.47,1.47-1.47,3.84,0,5.31,1.47,1.47,3.84,1.47,5.31,0s1.47-3.84,0-5.31-3.84-1.47-5.31,0Z"/>
        <path class="cls-7" d="m387.89,327.1c0-2.07-1.68-3.75-3.75-3.75s-3.75,1.68-3.75,3.75,1.68,3.75,3.75,3.75,3.75-1.68,3.75-3.75Z"/>
        <path class="cls-7" d="m387.51,309.9c-1.47,1.47-1.47,3.84,0,5.31,1.47,1.47,3.84,1.47,5.31,0,1.47-1.47,1.47-3.84,0-5.31s-3.84-1.47-5.31,0Z"/>
      </g>
      <g>
        <g>
          <path class="cls-16" d="m174.78,76.82h145.87c13.79,0,24.98,11.19,24.98,24.98v298.36c0,13.79-11.19,24.98-24.98,24.98h-145.87c-13.79,0-24.98-11.19-24.98-24.98V101.8c0-13.79,11.19-24.98,24.98-24.98Z"/>
          <path class="cls-12" d="m336.26,101.8v41.57h-177.09v-41.57c0-8.6,7.01-15.61,15.61-15.61h145.88c8.6,0,15.61,7.01,15.61,15.61Z"/>
          <path class="cls-16" d="m199.88,86.19l3.58,11.77c.69,2.27,2.78,3.82,5.15,3.82h78.21c2.37,0,4.46-1.55,5.15-3.82l3.58-11.77-42.93-4.18-52.74,4.18Z"/>
          <path class="cls-18" d="m263.12,92.21h-30.81c-.98,0-1.78.79-1.78,1.78s.79,1.78,1.78,1.78h30.81c.98,0,1.78-.79,1.78-1.78s-.79-1.78-1.78-1.78Z"/>
          <path class="cls-18" d="m226.88,93.99c0,1.47-1.19,2.66-2.66,2.66s-2.66-1.19-2.66-2.66,1.19-2.66,2.66-2.66,2.66,1.19,2.66,2.66Z"/>
          <path class="cls-18" d="m273.86,93.99c0,1.47-1.19,2.66-2.66,2.66s-2.66-1.19-2.66-2.66,1.19-2.66,2.66-2.66,2.66,1.19,2.66,2.66Z"/>
          <g>
            <path class="cls-18" d="m324.48,128.5h-12.14c-.56,0-1.01.45-1.01,1.01s.45,1.01,1.01,1.01h12.14c.56,0,1.01-.45,1.01-1.01s-.45-1.01-1.01-1.01Z"/>
            <path class="cls-18" d="m324.48,132.02h-12.14c-.56,0-1.01.45-1.01,1.01s.45,1.01,1.01,1.01h12.14c.56,0,1.01-.45,1.01-1.01s-.45-1.01-1.01-1.01Z"/>
            <path class="cls-18" d="m324.48,135.54h-12.14c-.56,0-1.01.45-1.01,1.01s.45,1.01,1.01,1.01h12.14c.56,0,1.01-.45,1.01-1.01s-.45-1.01-1.01-1.01Z"/>
          </g>
          <polygon class="cls-18" points="171.05 136.81 165.24 133.03 171.05 129.25 171.77 130.35 167.64 133.03 171.77 135.72 171.05 136.81"/>
          <path class="cls-13" d="m321.1,93.99c0,1.42,1.15,2.57,2.57,2.57s2.57-1.15,2.57-2.57-1.15-2.57-2.57-2.57-2.57,1.15-2.57,2.57Z"/>
          <path class="cls-13" d="m312.35,93.99c0,1.42,1.15,2.57,2.57,2.57s2.57-1.15,2.57-2.57-1.15-2.57-2.57-2.57-2.57,1.15-2.57,2.57Z"/>
          <path class="cls-13" d="m180.51,91.42h-8.74c-1.42,0-2.57,1.15-2.57,2.57s1.15,2.57,2.57,2.57h8.74c1.42,0,2.57-1.15,2.57-2.57s-1.15-2.57-2.57-2.57Z"/>
          <path class="cls-12" d="m336.26,375.83v24.34c0,8.6-7.01,15.61-15.61,15.61h-145.88c-8.6,0-15.61-7.01-15.61-15.61v-24.34h177.09Z"/>
          <path class="cls-7" d="m288.19,407.12h-80.95c-1.53,0-2.77,1.24-2.77,2.77s1.24,2.77,2.77,2.77h80.95c1.53,0,2.77-1.24,2.77-2.77s-1.24-2.77-2.77-2.77Z"/>
          <circle class="cls-13" cx="183.36" cy="391.48" r="10.16"/>
          <circle class="cls-13" cx="215.54" cy="391.48" r="10.16"/>
          <circle class="cls-13" cx="247.71" cy="391.48" r="10.16"/>
          <circle class="cls-13" cx="279.89" cy="391.48" r="10.16"/>
          <circle class="cls-13" cx="312.06" cy="391.48" r="10.16"/>
          <rect class="cls-21" x="159.17" y="143.36" width="177.09" height="232.46"/>
        </g>
        <g class="cls-2">
          <path class="cls-19" d="m310.6,275.19v79.87c0,3.8-3.08,6.89-6.9,6.89h-144.53v-93.66h144.53c3.82,0,6.9,3.08,6.9,6.9Z"/>
          <path class="cls-19" d="m336.26,165.74v93.66h-144.53c-3.82,0-6.9-3.08-6.9-6.9v-79.87c0-3.8,3.08-6.89,6.9-6.89h144.53Z"/>
        </g>
        <g>
          <g>
            <g>
              <circle class="cls-7" cx="433.38" cy="208.32" r="49.62" transform="translate(-47.47 208.56) rotate(-25.7)"/>
              <g class="cls-5">
                <g>
                  <path class="cls-16" d="m441.15,234.07h-15.46c-8.91,0-16.14,7.23-16.14,16.14v7.73h47.74v-7.73c0-8.91-7.23-16.14-16.14-16.14Z"/>
                  <rect class="cls-16" x="406.94" y="169.37" width="52.97" height="58.06" rx="26.48" ry="26.48"/>
                  <rect class="cls-1" x="427.21" y="222.75" width="12.34" height="14.58"/>
                  <path class="cls-15" d="m427.21,232.21c1.97.51,4.04.78,6.17.78h0c2.13,0,4.2-.27,6.17-.78v-9.07h-12.34v9.07Z"/>
                  <circle class="cls-1" cx="457.93" cy="200.95" r="5.65"/>
                  <path class="cls-15" d="m454.78,200.95c0,1.74,1.41,3.15,3.15,3.15s3.15-1.41,3.15-3.15-1.41-3.15-3.15-3.15-3.15,1.41-3.15,3.15Z"/>
                  <path class="cls-1" d="m414.47,200.95c0,3.12-2.53,5.65-5.65,5.65s-5.65-2.53-5.65-5.65,2.53-5.65,5.65-5.65,5.65,2.53,5.65,5.65Z"/>
                  <path class="cls-15" d="m411.97,200.95c0,1.74-1.41,3.15-3.15,3.15s-3.15-1.41-3.15-3.15,1.41-3.15,3.15-3.15,3.15,1.41,3.15,3.15Z"/>
                  <path class="cls-1" d="m433.38,171.67h0c-13.56,0-24.56,10.99-24.56,24.56v9.45c0,13.56,10.99,24.56,24.56,24.56h0c13.56,0,24.56-10.99,24.56-24.56v-9.45c0-13.56-10.99-24.56-24.56-24.56Z"/>
                  <path class="cls-16" d="m424.98,199.64c0,1.74-1.41,3.15-3.15,3.15s-3.15-1.41-3.15-3.15,1.41-3.15,3.15-3.15,3.15,1.41,3.15,3.15Z"/>
                  <path class="cls-16" d="m448.08,199.64c0,1.74-1.41,3.15-3.15,3.15s-3.15-1.41-3.15-3.15,1.41-3.15,3.15-3.15,3.15,1.41,3.15,3.15Z"/>
                  <path class="cls-11" d="m421.56,206.5c0,1.18-.95,2.13-2.13,2.13s-2.13-.95-2.13-2.13.95-2.13,2.13-2.13,2.13.95,2.13,2.13Z"/>
                  <path class="cls-11" d="m445.2,206.5c0,1.18.95,2.13,2.13,2.13s2.13-.95,2.13-2.13-.95-2.13-2.13-2.13-2.13.95-2.13,2.13Z"/>
                  <g>
                    <rect class="cls-8" x="426.55" y="214.76" width="13.74" height="2.07"/>
                    <path class="cls-20" d="m426.55,216.83c0,2.46,3.08,4.45,6.87,4.45s6.87-1.99,6.87-4.45h-13.74Z"/>
                    <path class="cls-9" d="m437.41,220.45c-1.12.53-2.5.83-3.99.83s-2.87-.31-3.99-.83c.44-1.5,2.06-2.61,3.99-2.61s3.55,1.11,3.99,2.61Z"/>
                  </g>
                  <path class="cls-15" d="m436.03,208.32c-.44-3.16-1.24-7.82-1.84-9.87-.27-.91-1.28-.91-1.54,0-.6,2.05-1.4,6.71-1.84,9.87-.22,1.58,1.01,3,2.61,3h0c1.6,0,2.83-1.41,2.61-3Z"/>
                  <path class="cls-16" d="m407.78,192.07v7.99c0,1,.81,1.81,1.81,1.81s1.81-.81,1.81-1.81v-7.99h-3.62Z"/>
                  <path class="cls-16" d="m459.06,192.07v7.99c0,1-.81,1.81-1.81,1.81s-1.81-.81-1.81-1.81v-7.99h3.62Z"/>
                  <path class="cls-16" d="m437.99,171.67h-9.13c-11.04,0-19.99,8.95-19.99,19.99v.42h2.53v-2.54c0-.85.69-1.53,1.53-1.53h40.98c.85,0,1.53.69,1.53,1.53v2.54h2.53v-.42c0-11.04-8.95-19.99-19.99-19.99Z"/>
                  <path class="cls-1" d="m443.53,234.27c-.78-.11-1.56-.19-2.37-.19h-15.46c-.81,0-1.6.08-2.37.19.76,4.38,4.99,7.74,10.1,7.74s9.34-3.36,10.1-7.74Z"/>
                </g>
              </g>
            </g>
            <g>
              <rect class="cls-10" x="184.83" y="161.49" width="175.27" height="93.66" rx="6.9" ry="6.9"/>
              <polygon class="cls-10" points="360.09 176.36 339.81 176.36 360.09 196.62 380.38 176.36 360.09 176.36"/>
              <rect class="cls-7" x="200.63" y="176.36" width="21.42" height="8.39"/>
              <rect class="cls-7" x="233.41" y="176.36" width="51.38" height="8.39"/>
              <rect class="cls-7" x="296.15" y="176.36" width="48.14" height="8.39"/>
              <rect class="cls-7" x="200.63" y="192.43" width="52.4" height="8.38"/>
              <rect class="cls-7" x="264.39" y="192.43" width="44.94" height="8.38"/>
              <rect class="cls-7" x="320.68" y="192.43" width="23.61" height="8.38"/>
              <rect class="cls-7" x="200.63" y="208.49" width="25.05" height="8.39"/>
              <rect class="cls-7" x="237.04" y="208.49" width="67.37" height="8.39"/>
              <rect class="cls-7" x="315.77" y="208.49" width="28.52" height="8.39"/>
              <rect class="cls-7" x="200.63" y="224.55" width="58.86" height="8.39"/>
            </g>
          </g>
          <g>
            <g>
              <circle class="cls-16" cx="62.05" cy="310.87" r="49.62" transform="translate(-68.96 22.21) rotate(-13.12)"/>
              <g class="cls-6">
                <g>
                  <g>
                    <rect class="cls-16" x="35.63" y="274.7" width=".63" height="19.61"/>
                    <path class="cls-14" d="m37.6,273.57c0,.91-.74,1.66-1.66,1.66s-1.66-.74-1.66-1.66.74-1.66,1.66-1.66,1.66.74,1.66,1.66Z"/>
                    <path class="cls-7" d="m34.91,272.6c-.3.3-.44.65-.3.78.13.13.48,0,.78-.3s.44-.65.3-.78c-.13-.13-.48,0-.78.3Z"/>
                    <path class="cls-13" d="m35.24,288.77c-.97,0-1.76.79-1.76,1.76v4.26c0,.97.79,1.76,1.76,1.76h6.77v-7.78h-6.77Z"/>
                    <rect class="cls-21" x="37.33" y="283.01" width="49.44" height="44.51" rx="5.16" ry="5.16"/>
                    <rect class="cls-7" x="39.18" y="284.86" width="45.74" height="40.8" rx="3.31" ry="3.31"/>
                    <path class="cls-16" d="m73.75,290.89h-23.17c-3.97,0-7.19,3.22-7.19,7.19s3.22,7.19,7.19,7.19h23.17c3.97,0,7.19-3.22,7.19-7.19s-3.22-7.19-7.19-7.19Z"/>
                    <path class="cls-14" d="m30.27,305.26c0,3.9,3.16,7.06,7.06,7.06v-14.12c-3.9,0-7.06,3.16-7.06,7.06Z"/>
                    <path class="cls-14" d="m93.83,305.26c0,3.9-3.16,7.06-7.06,7.06v-14.12c3.9,0,7.06,3.16,7.06,7.06Z"/>
                    <rect class="cls-12" x="55.57" y="327.51" width="12.97" height="11.02"/>
                    <polygon class="cls-13" points="68.53 329.6 55.57 328.56 55.57 327.51 68.53 327.51 68.53 329.6"/>
                    <g>
                      <path class="cls-14" d="m58.88,300.5c-.48,0-.86.39-.86.86s.39.86.86.86.86-.39.86-.86-.39-.86-.86-.86Z"/>
                      <circle class="cls-14" cx="62.17" cy="301.36" r=".86"/>
                      <circle class="cls-14" cx="65.45" cy="301.36" r=".86"/>
                      <path class="cls-14" d="m55.6,297.21c-.48,0-.86.39-.86.86s.39.86.86.86.86-.39.86-.86-.39-.86-.86-.86Z"/>
                      <path class="cls-14" d="m58.88,297.21c-.48,0-.86.39-.86.86s.39.86.86.86.86-.39.86-.86-.39-.86-.86-.86Z"/>
                      <path class="cls-14" d="m62.17,297.21c-.48,0-.86.39-.86.86s.39.86.86.86.86-.39.86-.86-.39-.86-.86-.86Z"/>
                      <path class="cls-14" d="m65.45,297.21c-.48,0-.86.39-.86.86s.39.86.86.86.86-.39.86-.86-.39-.86-.86-.86Z"/>
                      <path class="cls-14" d="m68.74,297.21c-.48,0-.86.39-.86.86s.39.86.86.86.86-.39.86-.86-.39-.86-.86-.86Z"/>
                      <path class="cls-14" d="m58.88,293.93c-.48,0-.86.39-.86.86s.39.86.86.86.86-.39.86-.86-.39-.86-.86-.86Z"/>
                      <path class="cls-14" d="m62.17,293.93c-.48,0-.86.39-.86.86s.39.86.86.86.86-.39.86-.86-.39-.86-.86-.86Z"/>
                      <path class="cls-14" d="m65.45,293.93c-.48,0-.86.39-.86.86s.39.86.86.86.86-.39.86-.86-.39-.86-.86-.86Z"/>
                    </g>
                    <g>
                      <path class="cls-16" d="m65.88,318.93c.28,0,.5-.23.5-.51v-4.98c0-.28-.23-.51-.5-.51s-.51.23-.51.51v4.98c0,.28.23.51.51.51Z"/>
                      <path class="cls-16" d="m63.97,320.25c.28,0,.51-.23.51-.51v-7.63c0-.28-.23-.51-.51-.51s-.51.23-.51.51v7.63c0,.28.23.51.51.51Z"/>
                      <path class="cls-16" d="m62.05,321.57c.28,0,.51-.23.51-.51v-10.27c0-.28-.23-.51-.51-.51s-.51.23-.51.51v10.27c0,.28.23.51.51.51Z"/>
                      <path class="cls-16" d="m60.13,320.25c.28,0,.51-.23.51-.51v-7.63c0-.28-.23-.51-.51-.51s-.51.23-.51.51v7.63c0,.28.23.51.51.51Z"/>
                      <path class="cls-16" d="m58.22,318.93c.28,0,.51-.23.51-.51v-4.98c0-.28-.23-.51-.51-.51s-.51.23-.51.51v4.98c0,.28.23.51.51.51Z"/>
                    </g>
                    <path class="cls-17" d="m75.46,293.55c0,.69-5.95,1.24-13.3,1.24s-13.3-.56-13.3-1.24,5.95-1.24,13.3-1.24,13.3.56,13.3,1.24Z"/>
                  </g>
                  <path class="cls-7" d="m69.78,336.3h-15.46c-8.91,0-16.14,7.23-16.14,16.14v7.73h47.74v-7.73c0-8.91-7.23-16.14-16.14-16.14Z"/>
                </g>
              </g>
            </g>
            <g>
              <rect class="cls-7" x="135.33" y="264.04" width="175.27" height="93.66" rx="6.9" ry="6.9"/>
              <polygon class="cls-7" points="135.33 278.91 115.05 278.91 135.33 299.17 155.62 278.91 135.33 278.91"/>
              <g>
                <rect class="cls-16" x="151.14" y="278.91" width="41.06" height="8.39"/>
                <rect class="cls-16" x="203.56" y="278.91" width="50.59" height="8.39"/>
                <rect class="cls-16" x="265.51" y="278.91" width="29.29" height="8.39"/>
                <rect class="cls-16" x="151.14" y="294.98" width="44.68" height="8.38"/>
                <rect class="cls-16" x="207.18" y="294.98" width="32.63" height="8.38"/>
                <rect class="cls-16" x="251.16" y="294.98" width="43.63" height="8.38"/>
                <rect class="cls-16" x="151.14" y="311.04" width="16.66" height="8.39"/>
                <rect class="cls-16" x="179.16" y="311.04" width="59.69" height="8.39"/>
                <rect class="cls-16" x="250.21" y="311.04" width="44.59" height="8.39"/>
                <rect class="cls-16" x="151.14" y="327.1" width="81.18" height="8.39"/>
              </g>
            </g>
          </g>
        </g>
      </g>
    </g>
  </g>
</svg>