<svg xmlns="http://www.w3.org/2000/svg" viewBox="0 0 158.81 138.02"><defs><style>.cls-1{fill:#f9f3e6;}.cls-1,.cls-12,.cls-6,.cls-7{stroke:#5e6696;stroke-miterlimit:10;}.cls-2{fill:#5e6696;}.cls-3{fill:#b38bcb;}.cls-4{fill:#df6cb8;}.cls-5{fill:#606797;}.cls-12,.cls-6,.cls-7,.cls-9{fill:none;}.cls-6,.cls-7{stroke-width:2px;}.cls-7{stroke-linecap:round;}.cls-8{fill:#e070ba;}.cls-10{fill:#efefef;}.cls-11{fill:#fff;}</style></defs><g id="Capa_2" data-name="Capa 2"><g id="Gato-2"><path class="cls-1" d="M152.19,135.35a36.25,36.25,0,0,0-.78-14.8c-2.12-7.84-1.06-6.1-1.06-6.1s6.58-5,7.45-12.68S152.38,84,152.38,84s-9-14.91-9.58-16.26S137.48,59,137.48,59,136.22,48.16,135,44.77s-6.38-16.83-6.38-16.83a58,58,0,0,0,5-27.1S113.48-.52,103.8,3.35L102.25,4S98.67,1.52,90.54,1.32,72.25,5,72.25,5,63,1.56,54.93,2.39s-8.42.77-8.42.77L56,25.32,56,29.48,52,44.77S50.77,54.84,50.82,57.4a90.2,90.2,0,0,0,1.69,11.71c.44,1.6,4.14,11.5,4.14,11.5s-6.94-.17-10.33-2S35,72,32.48,71.44s-9.77-2.38-17-2S4.32,72.79,4.32,72.79,1.17,75.21.79,78.4c0,0,16,4.65,18.29,6.29S41.53,101,43.75,101.53s9.87,2,9.87,2-9.87,21.87-9.87,25.59l.13,1.45Z"/><path class="cls-2" d="M53.87,23.17c-3-6.22-4.82-13-8.33-19-.62-1.07.13-1.6,1.14-1.61,4.15,0,8.26-.76,12.41-.62a5,5,0,0,0,2,.12,27.69,27.69,0,0,1,7.19.8,13,13,0,0,1,3,.78c1.92,1,3.61.54,5.5-.16A36.73,36.73,0,0,1,98.17,1.82c2.29.53,4.55,2.07,7.06.63a8.79,8.79,0,0,1,1.47-.51A34.64,34.64,0,0,1,110.83,1a.86.86,0,0,0,.28,0c1.88-.42,3.8-.38,5.69-.62.52,0,1,0,1.56,0A132.11,132.11,0,0,1,132.29.07c2,0,2.34.48,2.38,2.41s-.46,4-.58,6.07c-.57,3.36-1,6.73-1.53,10.1a64.76,64.76,0,0,1-2.29,10,2,2,0,0,0,.15,1.63c1.56,3.41,3.09,6.83,4.31,10.38a15.69,15.69,0,0,1,1,2.83,78.15,78.15,0,0,1,2.13,10.61c.14,1.24,0,2.58.6,3.69,3.2,5.52,5.83,11.36,9.19,16.81a129,129,0,0,1,8.83,15.73,25.58,25.58,0,0,1,2.25,13.16c-.49,4.6-3.11,8-6.59,10.85a2,2,0,0,0-.7,2.54,27,27,0,0,1,1.33,6c.45,2.19.48,4.44.91,6.63a20.34,20.34,0,0,1-.31,6c-.26.46-.31,1.24-1.09,1s-.87-.84-.71-1.51a3.5,3.5,0,0,0,0-1.33,2.3,2.3,0,0,1,.28-.06c.53-.66.28-1.43.23-2.13a66.59,66.59,0,0,0-2.46-14.56h0c-.51-.56-.92-.12-1.37.11a37.44,37.44,0,0,1-11.56,3.68,13.86,13.86,0,0,1-2.78.43c-8.55.42-17.09,1-25.66.83a26.84,26.84,0,0,0-5,.27,34.27,34.27,0,0,0-7.86,1.89,11,11,0,0,1-6.9,0c-2.3-1.46-3.26-3.44-2.52-6.15a13.45,13.45,0,0,1,2.72-5.25A48.71,48.71,0,0,1,107,99.59c.78-.47,1.78-.39,2.49-1a12,12,0,0,0,1.93-.54l0,0A33.36,33.36,0,0,1,119,96.45c6.06-.87,12-.07,17.93,1.17,1.94.41,3.86.93,5.77,1.47.54.15,1.14.54.84,1.27s-.79.46-1.35.32c-2.18-.53-4.38-1-6.58-1.5a49,49,0,0,0-15.92-1c-9.17,1-17.19,4.74-24.31,10.49a24.94,24.94,0,0,0-6.33,6.7,5.33,5.33,0,0,1-.87,1.67c-.12.52-.73,1-.05,1.57L91,115.06A19.82,19.82,0,0,1,94.07,112c.43-.35.91-.63,1.37-.12s.24,1.07-.23,1.5c-.19.18-.42.32-.61.5a27.31,27.31,0,0,0-5.48,7c-.51.92-.43,1.48.75,1.8a2.36,2.36,0,0,0,3-1.16,34.32,34.32,0,0,1,6.59-7.93c.45-.37,1-.82,1.49-.23s.11,1.07-.32,1.5c-.73.75-1.52,1.45-2.19,2.25a23.2,23.2,0,0,0-3.65,5c1.11.21,1.87-.51,2.76-.48,1.28-.7,2.82-.28,4.11-.93a47.66,47.66,0,0,1,7.91-.61q10.91-.18,21.81-.38a6.54,6.54,0,0,0,2.72-.53h0a32.83,32.83,0,0,0,15.57-5.25c6.4-4.27,9.09-11.52,6.5-18.74-.54-1.47-1.18-2.9-1.58-4.41h0a2.48,2.48,0,0,1-.55-.66,8,8,0,0,0-.56-1.18,1.12,1.12,0,0,1,.1-.66c-3-5.61-6.53-10.9-9.72-16.41-.46-.81-.51-1.82-1.24-2.48h0q-1.23-2.23-2.47-4.47c-.56-.44-.55-1.31-1.29-1.76-.46,1.07.16,1.91.3,2.8s.51,1.89-.7,2.41c-1-.14-1.07-.91-1.19-1.63-.92-5.16-.92-10.41-1.62-15.6a18.45,18.45,0,0,0-.92-4.15q-.78-2.67-1.57-5.35c-.47-.78-.34-1.78-.91-2.53-2-5-4.15-9.8-6.5-14.58-.27-.53-.63-1.06.09-1.47s1,.18,1.32.68c.49.87.92,1.76,1.41,2.62.23.39.46.4.52-.12.53-1.33.25-2.84.95-4.13,1-4.15,1.41-8.41,2.17-12.6.62-2.08.53-4.24.81-6.35.15-1.17-.31-1.57-1.49-1.55-3.14,0-6.28.29-9.43.18a1.18,1.18,0,0,0-.9.16,83.49,83.49,0,0,0-13.83,1.6c-.49.22-1.1.2-1.43.75.33.56.94.57,1.44.76.72.38,2.09.41,1.59,1.63s-1.43.24-2.17,0c-.2-.06-.39-.15-.59-.23-4.22-1.71-8.47-3.34-13.1-3.6a43,43,0,0,0-10.32.68,28,28,0,0,0-3.49.93L75.78,5.76c-1.61.58-3.22,1.17-4.84,1.72a1.1,1.1,0,0,1-1.3-.23.75.75,0,0,1,0-1c1.69-1.41,0-1.11-.64-1.27-.86-.23-1.73-.36-2.6-.53-5.63-1-11.28-.63-16.93-.28-1.7.11-1.72.22-1,1.86L50,8.87a3.5,3.5,0,0,1,.93,1.57C51.54,12,52,13.56,52.76,15a81.51,81.51,0,0,0,4,9c1.23-2,1.79-3.95,2.71-5.75a7.15,7.15,0,0,0,.61-1.42c.42-.78.48-1.77,1.3-2.33h0a.77.77,0,0,1,1.21,0,2,2,0,0,1,0,1.8c-.52,1.25-1,2.52-1.52,3.78-.28.5-.37,1.08-.63,1.58a92.31,92.31,0,0,0-4.07,10.08,8.58,8.58,0,0,0-.82,3.3c-.22,1.76-.78,3.45-1.13,5.19h0A11,11,0,0,0,54,42.27h0a31,31,0,0,0-1.14,5.16l-.06.14-.25-7.5c.56-2.45,1.16-4.89,1.84-7.31.89-3.21,2.53-6.41-.41-9.44C53.89,23.29,53.89,23.22,53.87,23.17Z"/><path class="cls-2" d="M63.16,79.46c6.36,3.27,13.29,3.2,20.13,3.29A80,80,0,0,0,95,82a60.48,60.48,0,0,0,17.08-4.57c1.49-.67,1.52-.92.17-1.94a110.5,110.5,0,0,0-10.94-7.09c-.35-.36-.85-.4-1.26-.64a55.13,55.13,0,0,0-7.26-3.71c-.67-.3-1.15-.68-.79-1.4s1-.48,1.51-.24c.2.08.38.19.57.28a98.92,98.92,0,0,1,20.25,12.24,1.45,1.45,0,0,0,2,.15,30.2,30.2,0,0,0,3.35-2.59c1.29-1.09,1.28-1.21-.27-2-3.84-1.92-7.81-3.55-11.77-5.21-.75-.58-1.73-.55-2.55-1H105l-.13,0a7.78,7.78,0,0,0-1.92-.6l-.61-.34a18.39,18.39,0,0,0-2.86-.6c-.48-.27-.93-.55-.57-1.21s.78-.67,1.44-.5a102.15,102.15,0,0,1,15.16,5.62,88.71,88.71,0,0,1,12.08,6.38c.54.35,1.35.73.76,1.58s-1.12.27-1.66-.06c-1.08-.64-2.17-1.28-3.24-1.94a1,1,0,0,0-1.55.23,14,14,0,0,1-3.81,3.2c-1,.51-1.25,1-.25,1.85a14.26,14.26,0,0,1,1.76,1.8c.35.4.65.87.14,1.38s-1,.2-1.38-.16c-.76-.72-1.51-1.46-2.22-2.24a1.31,1.31,0,0,0-1.88-.35,43.58,43.58,0,0,1-11.65,4.16,95,95,0,0,1-30,1.48,28.61,28.61,0,0,1-15.35-6.26s5.34,2.11,3.34,1.11a44.92,44.92,0,0,1-5.85-4.26l-1.15-3.81.36,0C55.87,74.78,59.2,77.42,63.16,79.46Z"/><path class="cls-3" d="M154.16,88c-3-5.61-6.54-10.91-9.72-16.41-.47-.81-.51-1.82-1.25-2.49.66,3.23-1.29,5.81-2.15,8.65a32.86,32.86,0,0,0-1.25,3.87,9.67,9.67,0,0,0,3,9.26c2.05,1.87,4,3.82,5,6.51a7,7,0,0,0,1.2,1.83c.68.87,1.42,1.85,2.68,1.57a3.78,3.78,0,0,0,2.57-2.34,8.37,8.37,0,0,0,.57-3.84c-.17-1.44-.28-2.88-.34-4.33C154.57,89.5,153.74,88.85,154.16,88Z"/><path class="cls-4" d="M127.12,18.05a45,45,0,0,0,.64-6.86c0-4.8-.79-4.59-4.8-5.35a29.8,29.8,0,0,0-10.32-.09c-1.66.26-2.17,1.14-1.32,2.59A22.81,22.81,0,0,0,115,13c2.6,2.58,5,5.37,8.11,7.4,1,.62,2,1.39,3.06.14C126.82,19.85,126.6,18.81,127.12,18.05Z"/><path class="cls-3" d="M110.14,119.81c7.28-.12,14.55-.23,21.82-.37a6.54,6.54,0,0,0,2.72-.54,30.38,30.38,0,0,0-5.31.24c-2.13.07-2.59-.28-3.16-2.4s-1-4.17-1.64-6.21c-.6-1.88-1.25-3.8-3.21-4.81a2.45,2.45,0,0,0-3.15.36A39.76,39.76,0,0,0,111,114.9,5.9,5.9,0,0,0,110.14,119.81Z"/><path class="cls-3" d="M152.37,133.35c.54-.65.28-1.42.23-2.12a66.57,66.57,0,0,0-2.45-14.56c.31,3.3-1,6.1-2.66,8.81C146,128,144,130.15,143,133c0,.1-.09.19-.11.29-.33,1.46-1,3,.43,4.22s2.74-.08,4-.64a17.86,17.86,0,0,0,2.47-1.63C150.77,134.75,151.17,133.5,152.37,133.35Z"/><path class="cls-4" d="M64.1,6.74a27.47,27.47,0,0,0-12.27,0c-.95.88-.39,1.87-.12,2.76A30.12,30.12,0,0,0,53.1,13a25.43,25.43,0,0,0,2.3,3.85c1.26,1.66,2,1.7,3.44.2a5.7,5.7,0,0,1,1.67-1.82,1.71,1.71,0,0,0,.71-.77,1.48,1.48,0,0,0,0-.21l.4-.9a16.6,16.6,0,0,0,1.54-1.9l1.27-1.87c.3-.7,1.11-1.27.54-2.19A4.16,4.16,0,0,0,64.1,6.74Z"/><path class="cls-3" d="M22.36,86.9c4.19,3.09,4.71,3.42,7.72,5.46,4.3,3.61,9,7.52,13.89,9.12-.92-3-1.65-7.84-2.75-10.76a55.38,55.38,0,0,0-2.83-6.1,2.25,2.25,0,0,0-2.61-1.3,7.59,7.59,0,0,1-3.64,0,8.09,8.09,0,0,1-1.77-1.24c-1.45-1.3-2.88-2.66-4.38-3.9-2-1.66-3.16-1.15-3.25,1.41a14.06,14.06,0,0,0,.74,4.19C23.68,84.54,22.94,86.18,22.36,86.9Z"/><path class="cls-5" d="M126.41,59.06l-4.7-1c-4.13-.5-8.25-1.05-12.43-1.14-3.72-.08-7.43-.08-11.14,0-1.62,0-2.4.61-2.39,1.76,0,.09.1.18.15.27,2.09.23,4.11-.43,6.2-.4,8.07.1,16.12.29,24,2.32a31.05,31.05,0,0,1,5.32,1.86c.62.29,1.14.33,1.44-.36s-.21-1-.69-1.22c-.95-.45-1.92-.83-2.89-1.23C128.4,59.42,127.33,59.49,126.41,59.06Z"/><path class="cls-6" d="M53.66,39.72S47,58.33,55,75.33"/><path class="cls-7" d="M54.14,55.79S36.79,45.57,35,43.33"/><path class="cls-7" d="M54.51,61.15s-17.12-6.24-19-7.81"/><path class="cls-7" d="M54.46,65.41s-14,3.37-15.45,3.92"/><path class="cls-2" d="M57.17,77.72s-2.67-1.28-3.07-2,.57-1,.57-1l3,1.52Z"/><path class="cls-2" d="M57.17,77.72a10.67,10.67,0,0,0,3,1.49c1,.1,1.27-.2,1.27-.2l-1.09-.66c-.06,0-1.75-.92-1.82-1s-.78-.55-.82-.56-.45-.13-.49-.07a6.39,6.39,0,0,0-.29.61Z"/><path class="cls-8" d="M76.43,58.32c.49-.1,1-.39,1.48,0,.16-.93,1.09-1.22,1.57-1.88s1-1.1.71-1.79S79,54,78.37,54.08a30.13,30.13,0,0,1-3.28.23c-.4,0-.89-.08-1.09.42A1.19,1.19,0,0,0,74.28,56C75,56.81,75.71,57.56,76.43,58.32Z"/><path class="cls-6" d="M55,74.29c-.59.94,1.4,4.2,1.88,6.77-5.75,1.29-11.16-2.71-16.29-5.62a43.09,43.09,0,0,0-32.85-3.9c-2.89.84-7.44,4.7-6.61,7.59C5.51,80.51,9,81.36,13.36,82.74a46.83,46.83,0,0,1,5.29,2.2,47.21,47.21,0,0,1,5.81,3.61c9.12,6.25,18.64,16,29.67,15.22"/><path class="cls-6" d="M56,98c-.66,3.26-2.3,6.06-3.52,9.07-3,7.31-8.8,15.78-8.24,23.9"/><circle class="cls-9" cx="65.02" cy="43.11" r="8.49" transform="translate(-10.11 22.1) rotate(-17.92)"/><circle class="cls-9" cx="92.96" cy="43.11" r="8.49" transform="translate(-7.45 22.67) rotate(-13.37)"/><path class="cls-10" d="M88,36.25a8.49,8.49,0,0,0,12.12,11.49A8.49,8.49,0,1,1,88,36.25Z"/><path class="cls-10" d="M60,36.25A8.49,8.49,0,0,0,72.15,47.74,8.49,8.49,0,1,1,60,36.25Z"/><path class="cls-2" d="M84.08,44.21c0-4.3,4-7.79,8.88-7.79s8.88,3.49,8.88,7.79S97.86,52,93,52,84.08,48.5,84.08,44.21Zm.78,0c0,3.91,3.63,7.1,8.1,7.1s8.1-3.19,8.1-7.1S97.43,37.1,93,37.1,84.86,40.29,84.86,44.21Z"/><circle class="cls-2" cx="91.8" cy="43.55" r="4.12" transform="translate(-7.46 65.28) rotate(-37.73)"/><circle class="cls-11" cx="94.28" cy="44.29" r="1.13"/><path class="cls-2" d="M56.13,44.21c0-4.3,4-7.79,8.89-7.79s8.88,3.49,8.88,7.79S69.92,52,65,52,56.13,48.5,56.13,44.21Zm.78,0c0,3.91,3.64,7.1,8.11,7.1s8.1-3.19,8.1-7.1S69.49,37.1,65,37.1,56.91,40.29,56.91,44.21Z"/><circle class="cls-2" cx="63.47" cy="43.55" r="4.12" transform="translate(-12.21 57.64) rotate(-45)"/><circle class="cls-11" cx="66.34" cy="44.09" r="1.18"/><path class="cls-12" d="M3.42,74.48s6.58-1.16,9.1-1"/><path class="cls-12" d="M1.49,77s7.35-1.36,10.84,1.16"/></g></g></svg>