<?xml version="1.0" encoding="UTF-8"?>
<svg xmlns="http://www.w3.org/2000/svg" viewBox="0 0 500 170">
  <defs>
    <style>
      .cls-1 {
        letter-spacing: -.04em;
      }

      .cls-2, .cls-3 {
        fill: #871c28;
      }

      .cls-4 {
        fill: #2c3e50;
      }

      .cls-5 {
        fill: #37354d;
        opacity: .4;
      }

      .cls-5, .cls-6 {
        mix-blend-mode: multiply;
      }

      .cls-7 {
        fill: #fefeff;
      }

      .cls-8 {
        fill: #25d366;
      }

      .cls-9 {
        fill: #bec3c7;
      }

      .cls-10 {
        fill: none;
        isolation: isolate;
      }

      .cls-6 {
        fill: #ea3921;
      }

      .cls-11 {
        fill: #d9dee3;
      }

      .cls-3 {
        font-family: Raleway-Black, Raleway;
        font-size: 60px;
        font-weight: 800;
      }
    </style>
  </defs>
  <g class="cls-10">
    <g id="Capa_1" data-name="Capa 1">
      <g id="calendar">
        <g id="calendar-2" data-name="calendar">
          <path class="cls-4" d="m196.7,153.78c0,3.98-3.25,7.22-7.23,7.22H31.77c-3.97,0-7.21-3.24-7.21-7.22V45.5c0-3.97,3.24-7.22,7.21-7.22h157.71c3.98,0,7.23,3.25,7.23,7.22v108.27Z"/>
          <polygon class="cls-5" points="35.33 64.46 35.33 151.21 170.82 151.21 185.91 136.11 185.91 64.46 35.33 64.46"/>
          <g>
            <polygon class="cls-7" points="170.82 149.34 35.33 149.34 35.33 62.59 185.91 62.59 185.91 134.24 170.82 149.34"/>
            <polygon class="cls-11" points="170.82 134.24 185.91 134.24 170.82 149.34 170.82 134.24"/>
          </g>
          <g>
            <rect class="cls-9" x="43.33" y="88.65" width="15.78" height="15.79"/>
            <rect class="cls-9" x="63.13" y="88.65" width="15.78" height="15.79"/>
            <rect class="cls-9" x="82.93" y="88.65" width="15.79" height="15.79"/>
            <rect class="cls-9" x="102.73" y="88.65" width="15.79" height="15.79"/>
            <rect class="cls-9" x="122.53" y="88.65" width="15.79" height="15.79"/>
            <rect class="cls-9" x="142.33" y="88.65" width="15.78" height="15.79"/>
            <rect class="cls-8" x="162.13" y="88.65" width="15.78" height="15.79"/>
            <rect class="cls-9" x="102.73" y="69.8" width="15.79" height="15.79"/>
            <rect class="cls-9" x="122.53" y="69.8" width="15.79" height="15.79"/>
            <rect class="cls-9" x="142.33" y="69.8" width="15.78" height="15.79"/>
            <rect class="cls-8" x="162.13" y="69.8" width="15.78" height="15.79"/>
            <rect class="cls-9" x="43.33" y="107.49" width="15.78" height="15.79"/>
            <rect class="cls-9" x="63.13" y="107.49" width="15.78" height="15.79"/>
            <rect class="cls-9" x="82.93" y="107.49" width="15.79" height="15.79"/>
            <rect class="cls-8" x="102.73" y="107.49" width="15.79" height="15.79"/>
            <rect class="cls-9" x="122.53" y="107.49" width="15.79" height="15.79"/>
            <rect class="cls-9" x="142.33" y="107.49" width="15.78" height="15.79"/>
            <rect class="cls-8" x="162.13" y="107.49" width="15.78" height="15.79"/>
            <rect class="cls-9" x="43.33" y="126.35" width="15.78" height="15.78"/>
            <rect class="cls-9" x="63.13" y="126.35" width="15.78" height="15.78"/>
            <rect class="cls-9" x="82.93" y="126.35" width="15.79" height="15.78"/>
            <rect class="cls-9" x="102.73" y="126.35" width="15.79" height="15.78"/>
            <rect class="cls-9" x="122.53" y="126.35" width="15.79" height="15.78"/>
          </g>
          <path class="cls-2" d="m189.47,16.45H31.77c-3.97,0-7.21,3.25-7.21,7.22v27.26h172.15v-27.26c0-3.97-3.25-7.22-7.23-7.22Z"/>
          <path class="cls-6" d="m68.09,31.07c0,3.97-3.25,7.21-7.22,7.21h-3.52c-3.97,0-7.21-3.25-7.21-7.21v-14.43c0-3.97,3.24-7.23,7.21-7.23h3.52c3.97,0,7.22,3.26,7.22,7.23v14.43Z"/>
          <path class="cls-6" d="m167.31,31.07c0,3.97-3.24,7.21-7.22,7.21h-3.51c-3.98,0-7.22-3.25-7.22-7.21v-14.43c0-3.97,3.24-7.23,7.22-7.23h3.51c3.98,0,7.22,3.26,7.22,7.23v14.43Z"/>
          <path class="cls-4" d="m68.09,29.81c0,3.97-3.25,7.22-7.22,7.22h-3.52c-3.97,0-7.21-3.25-7.21-7.22v-14.43c0-3.97,3.24-7.22,7.21-7.22h3.52c3.97,0,7.22,3.25,7.22,7.22v14.43Z"/>
          <path class="cls-4" d="m156.57,8.16h3.51c3.99,0,7.22,3.24,7.22,7.22v14.43c0,3.98-3.24,7.22-7.22,7.22h-3.51c-3.98,0-7.22-3.24-7.22-7.22v-14.43c0-3.99,3.24-7.22,7.22-7.22Z"/>
        </g>
      </g>
      <text class="cls-3" transform="translate(241.48 75.89)"><tspan class="cls-1" x="0" y="0">T</tspan><tspan x="35.04" y="0">urnos</tspan></text>
      <g>
        <path class="cls-4" d="m230.4,137.5l4.1-3.49c2.16,3.35,5.21,5.17,9.11,5.17s6.92-2.04,6.92-5.48c0-2.49-1.71-3.97-4.45-5.58l-3.86-2.31c-3.31-1.94-6.16-4.92-6.16-9.48,0-6.18,5.2-10.47,12.1-10.47,5.05,0,9.34,2.56,11.71,5.86l-3.99,3.41c-1.78-2.21-4.41-4.03-7.86-4.03-3.26,0-5.58,2.06-5.58,4.74,0,2.37,1.74,3.79,3.91,5.13l4.25,2.62c3.58,2.29,6.25,4.85,6.25,9.61,0,7.22-5.82,11.3-13.13,11.3-6.34,0-10.73-2.85-13.31-7Z"/>
        <path class="cls-4" d="m265.33,133.72c0-10.13,6.97-18.6,15.2-18.6,3.83,0,6.67,1.55,8.1,3.93h.23l1.18-3.25h4.95l-5.63,28h-4.99l.25-4.05h-.23c-2.8,2.92-6.33,4.74-9.71,4.74-5.68,0-9.36-3.81-9.36-10.77Zm19.75.85l2.31-11.02c-1.48-2.38-3.81-3.36-5.88-3.36-5.43,0-9.86,5.77-9.86,12.68,0,4.52,2.05,6.56,5.18,6.56,2.58,0,5.63-1.57,8.25-4.86Z"/>
        <path class="cls-4" d="m304.05,115.81h5.01l-.53,5.25h.23c3.09-3.06,7.24-5.93,11.72-5.93,4.82,0,7.23,2.65,7.23,7.09,0,1.47-.21,2.92-.49,4.39l-3.46,17.2h-6.13l3.31-16.5c.26-1.28.47-2.35.47-3.4,0-2.32-1.29-3.53-3.64-3.53-3.04,0-6.42,2.1-9.61,5.85l-3.49,17.57h-6.13l5.51-28Z"/>
        <path class="cls-4" d="m332.14,138.39l4.01-3.67c1.75,2.6,4.09,4.43,7.54,4.43,4.78,0,7.17-2.7,8.38-8.72l3.73-18.71h-15.15l1.05-5.18h21.27l-5.09,25.22c-1.55,7.84-5.98,12.73-14.3,12.73-5.63,0-9.25-2.78-11.44-6.11Z"/>
        <path class="cls-4" d="m368.16,137.41c0-1.47.17-2.92.49-4.39l3.46-17.2h6.13l-3.31,16.5c-.26,1.28-.49,2.29-.49,3.34,0,2.32,1.31,3.58,3.66,3.58,3.04,0,6.26-2.13,9.46-5.85l3.49-17.57h6.16l-5.55,28h-5.03l.55-5.25h-.23c-3.05,3.02-7.12,5.93-11.56,5.93-4.82,0-7.23-2.65-7.23-7.09Z"/>
        <path class="cls-4" d="m402.13,133.72c0-10.13,6.97-18.6,15.2-18.6,3.83,0,6.67,1.55,8.1,3.93h.23l1.18-3.25h4.95l-5.63,28h-4.99l.25-4.05h-.23c-2.8,2.92-6.33,4.74-9.71,4.74-5.68,0-9.36-3.81-9.36-10.77Zm19.75.85l2.31-11.02c-1.48-2.38-3.81-3.36-5.88-3.36-5.43,0-9.86,5.77-9.86,12.68,0,4.52,2.05,6.56,5.18,6.56,2.58,0,5.63-1.57,8.25-4.86Z"/>
        <path class="cls-4" d="m440.84,115.81h5.01l-.53,5.25h.23c3.09-3.06,7.24-5.93,11.72-5.93,4.82,0,7.23,2.65,7.23,7.09,0,1.47-.21,2.92-.49,4.39l-3.46,17.2h-6.13l3.31-16.5c.26-1.28.47-2.35.47-3.4,0-2.32-1.29-3.53-3.64-3.53-3.04,0-6.42,2.1-9.61,5.85l-3.49,17.57h-6.13l5.51-28Z"/>
      </g>
    </g>
  </g>
</svg>